<svg width="18" height="18" viewBox="0 0 18 18" fill="none" xmlns="http://www.w3.org/2000/svg">
<path d="M5 7.76922C5.20642 7.76922 5.38622 7.69263 5.53942 7.53943C5.69263 7.38623 5.76923 7.20642 5.76923 7C5.76923 6.79358 5.69263 6.61377 5.53942 6.46057C5.38622 6.30737 5.20642 6.23078 5 6.23078C4.79358 6.23078 4.61378 6.30737 4.46058 6.46057C4.30737 6.61377 4.23077 6.79358 4.23077 7C4.23077 7.20642 4.30737 7.38623 4.46058 7.53943C4.61378 7.69263 4.79358 7.76922 5 7.76922ZM9 7.76922C9.20642 7.76922 9.38622 7.69263 9.53942 7.53943C9.69263 7.38623 9.76923 7.20642 9.76923 7C9.76923 6.79358 9.69263 6.61377 9.53942 6.46057C9.38622 6.30737 9.20642 6.23078 9 6.23078C8.79358 6.23078 8.61378 6.30737 8.46058 6.46057C8.30737 6.61377 8.23077 6.79358 8.23077 7C8.23077 7.20642 8.30737 7.38623 8.46058 7.53943C8.61378 7.69263 8.79358 7.76922 9 7.76922ZM13 7.76922C13.2064 7.76922 13.3862 7.69263 13.5394 7.53943C13.6926 7.38623 13.7692 7.20642 13.7692 7C13.7692 6.79358 13.6926 6.61377 13.5394 6.46057C13.3862 6.30737 13.2064 6.23078 13 6.23078C12.7936 6.23078 12.6138 6.30737 12.4606 6.46057C12.3074 6.61377 12.2308 6.79358 12.2308 7C12.2308 7.20642 12.3074 7.38623 12.4606 7.53943C12.6138 7.69263 12.7936 7.76922 13 7.76922ZM0 17.0769V1.61537C0 1.15512 0.154167 0.770833 0.4625 0.4625C0.770833 0.154167 1.15513 0 1.61538 0H16.3846C16.8449 0 17.2292 0.154167 17.5375 0.4625C17.8458 0.770833 18 1.15512 18 1.61537V12.3846C18 12.8449 17.8458 13.2292 17.5375 13.5375C17.2292 13.8458 16.8449 14 16.3846 14H3.07693L0 17.0769ZM2.65 13H16.3846C16.5385 13 16.6795 12.9359 16.8077 12.8077C16.9359 12.6795 17 12.5385 17 12.3846V1.61537C17 1.46154 16.9359 1.32052 16.8077 1.1923C16.6795 1.0641 16.5385 1 16.3846 1H1.61538C1.46154 1 1.32052 1.0641 1.1923 1.1923C1.0641 1.32052 1 1.46154 1 1.61537V14.6442L2.65 13Z" fill="white"/>
</svg>
