<svg width="21" height="16" viewBox="0 0 21 16" fill="none" xmlns="http://www.w3.org/2000/svg">
<path d="M0.704102 15.7179V13.7974C0.704102 13.2559 0.829301 12.7904 1.0797 12.4008C1.3301 12.0111 1.6666 11.6997 2.08921 11.4666C2.99273 10.9848 3.88987 10.6006 4.78061 10.3142C5.67138 10.0278 6.74309 9.88455 7.99577 9.88455C9.24844 9.88455 10.3202 10.0278 11.2109 10.3142C12.1017 10.6006 12.9988 10.9848 13.9023 11.4666C14.3249 11.6997 14.6614 12.0111 14.9118 12.4008C15.1622 12.7904 15.2874 13.2559 15.2874 13.7974V15.7179H0.704102ZM17.3708 15.7179V13.7435C17.3708 13.0675 17.2486 12.4293 17.0043 11.829C16.7599 11.2288 16.4133 10.7137 15.9645 10.2839C16.476 10.4006 16.9688 10.5625 17.4429 10.7696C17.917 10.9768 18.3857 11.2098 18.8492 11.4685C19.3005 11.7228 19.6544 12.0482 19.9108 12.4447C20.1673 12.8412 20.2955 13.2742 20.2955 13.7435V15.7179H17.3708ZM7.99577 7.28201C7.13639 7.28201 6.40072 6.9393 5.78874 6.25389C5.17676 5.56847 4.87077 4.74451 4.87077 3.78201C4.87077 2.81949 5.17676 1.99552 5.78874 1.31011C6.40072 0.624691 7.13639 0.281982 7.99577 0.281982C8.85514 0.281982 9.59082 0.624691 10.2028 1.31011C10.8148 1.99552 11.1208 2.81949 11.1208 3.78201C11.1208 4.74451 10.8148 5.56847 10.2028 6.25389C9.59082 6.9393 8.85514 7.28201 7.99577 7.28201ZM15.5679 3.78201C15.5679 4.74451 15.2619 5.56847 14.6499 6.25389C14.038 6.9393 13.3023 7.28201 12.4429 7.28201C12.3988 7.28201 12.3427 7.2764 12.2746 7.26518C12.2065 7.25396 12.1504 7.24163 12.1063 7.22817C12.4592 6.7441 12.7304 6.20709 12.9199 5.61715C13.1094 5.02721 13.2041 4.41456 13.2041 3.77921C13.2041 3.14388 13.1049 2.5368 12.9066 1.95796C12.7083 1.37912 12.4416 0.838405 12.1063 0.335824C12.1624 0.313405 12.2185 0.298822 12.2746 0.292074C12.3307 0.285347 12.3868 0.281982 12.4429 0.281982C13.3023 0.281982 14.038 0.624691 14.6499 1.31011C15.2619 1.99552 15.5679 2.81949 15.5679 3.78201ZM1.74577 14.5512H14.2458V13.7974C14.2458 13.5237 14.1847 13.2843 14.0625 13.0794C13.9403 12.8745 13.7209 12.6786 13.4044 12.4916C12.6272 12.0264 11.8079 11.6701 10.9465 11.4225C10.0851 11.175 9.10153 11.0512 7.99577 11.0512C6.89 11.0512 5.90643 11.175 5.04504 11.4225C4.18367 11.6701 3.36436 12.0264 2.58712 12.4916C2.27061 12.6786 2.05125 12.8745 1.92905 13.0794C1.80686 13.2843 1.74577 13.5237 1.74577 13.7974V14.5512ZM7.99577 6.11535C8.56869 6.11535 9.05914 5.88687 9.46712 5.42993C9.87511 4.97298 10.0791 4.42368 10.0791 3.78201C10.0791 3.14035 9.87511 2.59104 9.46712 2.1341C9.05914 1.67715 8.56869 1.44868 7.99577 1.44868C7.42285 1.44868 6.9324 1.67715 6.52441 2.1341C6.11643 2.59104 5.91244 3.14035 5.91244 3.78201C5.91244 4.42368 6.11643 4.97298 6.52441 5.42993C6.9324 5.88687 7.42285 6.11535 7.99577 6.11535Z" fill="white"/>
</svg>
