<svg width="19" height="19" viewBox="0 0 19 19" fill="none" xmlns="http://www.w3.org/2000/svg">
<path d="M9.49516 5.28803V8.50405M9.51425 1C6.00061 1 3.15532 3.878 3.15532 7.43205V9.46017C3.15532 10.1169 2.88797 11.102 2.55379 11.6621L1.3412 13.7096C0.596464 14.9747 1.11205 16.3848 2.48696 16.8483C7.0521 18.3839 11.9859 18.3839 16.5511 16.8483C16.8523 16.7467 17.1271 16.5779 17.3552 16.3544C17.5833 16.1309 17.7588 15.8584 17.8688 15.5571C17.9788 15.2558 18.0204 14.9333 17.9907 14.6136C17.9609 14.2938 17.8605 13.9848 17.6968 13.7096L16.4843 11.6621C16.1501 11.102 15.8827 10.1072 15.8827 9.46017V7.43205C15.8732 3.89732 13.0088 1 9.51425 1Z" stroke="white" stroke-width="1.5" stroke-miterlimit="10" stroke-linecap="round"/>
</svg>
