<svg width="21" height="19" viewBox="0 0 21 19" fill="none" xmlns="http://www.w3.org/2000/svg">
<path d="M10.5 12C11.163 12 11.7989 11.7366 12.2678 11.2678C12.7366 10.7989 13 10.163 13 9.5C13 8.83696 12.7366 8.20107 12.2678 7.73223C11.7989 7.26339 11.163 7 10.5 7C9.83696 7 9.20107 7.26339 8.73223 7.73223C8.26339 8.20107 8 8.83696 8 9.5C8 10.163 8.26339 10.7989 8.73223 11.2678C9.20107 11.7366 9.83696 12 10.5 12Z" stroke="white" stroke-width="1.5" stroke-miterlimit="10" stroke-linecap="round" stroke-linejoin="round"/>
<path d="M1 10.2925V8.70753C1 7.77099 1.8071 6.99653 2.8041 6.99653C4.52274 6.99653 5.22539 5.84385 4.36132 4.43002C3.86757 3.61955 4.16192 2.56593 5.02599 2.09766L6.66867 1.20613C7.41879 0.782884 8.38731 1.03503 8.83358 1.74645L8.93803 1.91755C9.7926 3.33138 11.1979 3.33138 12.062 1.91755L12.1664 1.74645C12.6127 1.03503 13.5812 0.782884 14.3313 1.20613L15.974 2.09766C16.8381 2.56593 17.1324 3.61955 16.6387 4.43002C15.7746 5.84385 16.4773 6.99653 18.1959 6.99653C19.1834 6.99653 20 7.76198 20 8.70753V10.2925C20 11.229 19.1929 12.0035 18.1959 12.0035C16.4773 12.0035 15.7746 13.1561 16.6387 14.57C17.1324 15.3895 16.8381 16.4341 15.974 16.9023L14.3313 17.7939C13.5812 18.2171 12.6127 17.965 12.1664 17.2536L12.062 17.0825C11.2074 15.6686 9.8021 15.6686 8.93803 17.0825L8.83358 17.2536C8.38731 17.965 7.41879 18.2171 6.66867 17.7939L5.02599 16.9023C4.61209 16.6763 4.30965 16.3038 4.18504 15.8665C4.06042 15.4293 4.12382 14.963 4.36132 14.57C5.22539 13.1561 4.52274 12.0035 2.8041 12.0035C1.8071 12.0035 1 11.229 1 10.2925Z" stroke="white" stroke-width="1.5" stroke-miterlimit="10" stroke-linecap="round" stroke-linejoin="round"/>
</svg>
