<svg width="19" height="18" viewBox="0 0 19 18" fill="none" xmlns="http://www.w3.org/2000/svg">
<path d="M9.50016 8.17948C8.43454 8.17948 7.5223 7.78781 6.76344 7.00448C6.00459 6.22114 5.62516 5.27948 5.62516 4.17948C5.62516 3.07946 6.00459 2.13778 6.76344 1.35444C7.5223 0.57111 8.43454 0.179443 9.50016 0.179443C10.5658 0.179443 11.478 0.57111 12.2369 1.35444C12.9957 2.13778 13.3752 3.07946 13.3752 4.17948C13.3752 5.27948 12.9957 6.22114 12.2369 7.00448C11.478 7.78781 10.5658 8.17948 9.50016 8.17948ZM0.458496 17.8205V15.6256C0.458496 15.0752 0.613744 14.5602 0.924239 14.0807C1.23473 13.6013 1.65246 13.229 2.17741 12.9641C3.39621 12.3607 4.61583 11.9081 5.83629 11.6064C7.05676 11.3047 8.27805 11.1538 9.50016 11.1538C10.7223 11.1538 11.9436 11.3047 13.164 11.6064C14.3845 11.9081 15.6041 12.3607 16.8229 12.9641C17.3479 13.229 17.7656 13.6013 18.0761 14.0807C18.3866 14.5602 18.5418 15.0752 18.5418 15.6256V17.8205H0.458496ZM1.75016 16.4871H17.2502V15.6256C17.2502 15.3299 17.1578 15.0521 16.9732 14.7923C16.7886 14.5325 16.5331 14.3128 16.2069 14.1333C15.1438 13.6017 14.0476 13.1944 12.9184 12.9115C11.7893 12.6286 10.6499 12.4871 9.50016 12.4871C8.35047 12.4871 7.21105 12.6286 6.0819 12.9115C4.95272 13.1944 3.85657 13.6017 2.79344 14.1333C2.46721 14.3128 2.21177 14.5325 2.02713 14.7923C1.84248 15.0521 1.75016 15.3299 1.75016 15.6256V16.4871ZM9.50016 6.84614C10.2106 6.84614 10.8187 6.58503 11.3246 6.06281C11.8305 5.54059 12.0835 4.91281 12.0835 4.17948C12.0835 3.44614 11.8305 2.81837 11.3246 2.29614C10.8187 1.77392 10.2106 1.51281 9.50016 1.51281C8.78975 1.51281 8.18159 1.77392 7.67568 2.29614C7.16978 2.81837 6.91683 3.44614 6.91683 4.17948C6.91683 4.91281 7.16978 5.54059 7.67568 6.06281C8.18159 6.58503 8.78975 6.84614 9.50016 6.84614Z" fill="white"/>
</svg>
